-
http:// www. Speed. Cd       
http:// www. Speed. Cd       the fast  and The Hottest Private Tracker on the net

Please Seed back to make the speed Faster!!!

and don't forget to visit      ...... www. Speed. Cd..........
-[align=center][IMG]http://img151.imageshack.us/img151/9199/streetkings2cover.jpg[/IMG]

** ** ** ** ** ** ** ** ** 

IMDB........ http://www.imdb.com/title/tt1707687/

** ** ** ** ** ** ** ** ** 

[b]PLOT[/b]

Rated R for violence, language, some sexual content/nudity and brief drug use.

** ** ** ** ** ** ** ** ** 

[b]AVI Information[/b]

Complete name : Street.Kings.2.Motor.City.2011.720 BRRip Xvid AC3 - PRESTiGE.avi 
Format : AVI 
Format/Info : Audio Video Interleave 
Format profile : OpenDML 
Format settings : rec 
File size : 2.86 GiB 
Duration : 1h 32mn 
Overall bit rate : 4 436 Kbps 
Source: Street.Kings.2.Motor.City.2011.720p.BluRay.x264-MOOVEE
Encoder: Twisted

[b]Video Stream[/b]

ID : 0 
Format : MPEG-4 Visual 
Format profile : Advanced Simple@L5 
Format settings, BVOP : 2 
Format settings, QPel : No 
Format settings, GMC : No warppoints 
Format settings, Matrix : Default (MPEG) 
Codec ID : XVID 
Codec ID/Hint : XviD 
Duration : 1h 32mn 
Bit rate : 3 791 Kbps 
Width : 1 280 pixels 
Height : 720 pixels 
Display aspect ratio : 16:9 
Frame rate : 23.976 fps 
Color space : YUV 
Chroma subsampling : 4:2:0 
Bit depth : 8 bits 
Scan type : Progressive 
Compression mode : Lossy 
Bits/(Pixel*Frame) : 0.172 
Stream size : 2.45 GiB (85%) 
Writing library : XviD 1.2.1 (UTC 2008-12-04) 


[b]Audio Stream[/b]

ID : 1 
Format : AC-3 
Format/Info : Audio Coding 3 
Mode extension : CM (complete main) 
Codec ID : 2000 
Duration : 1h 32mn 
Bit rate mode : Constant 
Bit rate : 640 Kbps 
Channel(s) : 6 channels 
Channel positions : Front: L C R, Side: L R, LFE 
Sampling rate : 48.0 KHz 
Bit depth : 16 bits 
Compression mode : Lossy 
Stream size : 423 MiB (14%) 
Alignment : Aligned on interleaves 
Interleave, duration : 64 ms (1.53 video frames) 
Interleave, preload duration : 192 ms 
Title : T2_Audio - 5.1 channels 


** ** ** ** ** ** ** ** ** 

[b]Screens[/b]

[IMG]http://img651.imageshack.us/img651/6854/pic11s.png[/IMG]
[IMG]http://img23.imageshack.us/img23/5462/pic12zb.png[/IMG]
[IMG]http://img808.imageshack.us/img808/3250/pic13.png[/IMG]
[IMG]http://img850.imageshack.us/img850/6884/pic14.png[/IMG]
[IMG]http://img707.imageshack.us/img707/7017/pic15n.png[/IMG]
[IMG]http://img98.imageshack.us/img98/1846/pic16r.png[/IMG]
[IMG]http://img593.imageshack.us/img593/3479/pic17z.png[/IMG]
[IMG]http://img811.imageshack.us/img811/1047/pic18.png[/IMG]

** ** ** ** ** ** ** ** **

Note

PRESTiGE - IS LOOKING FOR?: CAMMER'S, AUDIO SUPPLIERS, SYNCER'S, RETAIL SUPPLIER'S, SILVER'S, SCREENER'S, LINE CAPPER'S

ENCODER'S - ANYTHING AT ALL EMAIL US AT..... prestige@twistedtorrents.com

** ** ** ** ** ** ** ** **

Greets Are Flying Out To:

[b]BmB,HiTM4N,BIGGUY,Demedic,DiLLoN,Imagine,CTFX,Jammo
Encoders Past And Present[/b]

** ** ** ** ** ** ** ** ** 

PRESTiGE is the level of respect at which one is regarded by others....RIzE Above Or Sink Below

[IMG]http://leetleech.org/images/83508160282003703104.png[/IMG][/align]